<svg width="18" height="18" viewBox="0 0 18 18" fill="none" xmlns="http://www.w3.org/2000/svg">
<path d="M2.56768 4.59727C3.67538 4.59727 4.57334 3.6993 4.57334 2.5916C4.57334 1.4839 3.67538 0.585938 2.56768 0.585938C1.45998 0.585938 0.562012 1.4839 0.562012 2.5916C0.562012 3.6993 1.45998 4.59727 2.56768 4.59727Z" fill="#2B2B39"/>
<path d="M6.4661 6.11704V17.2445H9.92102V11.7417C9.92102 10.2897 10.1942 8.88354 11.9945 8.88354C13.7701 8.88354 13.7921 10.5436 13.7921 11.8334V17.2454H17.2489V11.1431C17.2489 8.14562 16.6035 5.84204 13.1 5.84204C11.4179 5.84204 10.2904 6.76512 9.82935 7.63871H9.7826V6.11704H6.4661ZM0.835938 6.11704H4.29635V17.2445H0.835938V6.11704Z" fill="#2B2B39"/>
</svg>
